<svg xmlns="http://www.w3.org/2000/svg" width="66.973" height="66.977" viewBox="0 0 66.973 66.977">
  <g id="Group_2056" data-name="Group 2056" transform="translate(-1354.004 -151)">
    <path id="Path_2002" data-name="Path 2002" d="M39.115,16.412a3.6,3.6,0,0,0-5.444,0c-1.275,1.262-2.55,2.523-3.8,3.812a.757.757,0,0,1-1.056.192c-.823-.453-1.7-.809-2.5-1.3a39.331,39.331,0,0,1-9.53-8.681,22.345,22.345,0,0,1-3.415-5.472.77.77,0,0,1,.192-1c1.275-1.234,2.523-2.5,3.771-3.757a3.625,3.625,0,0,0-.014-5.581c-.987-1-1.988-2-2.989-2.989-1.029-1.029-2.043-2.057-3.086-3.086a3.624,3.624,0,0,0-5.458,0c-1.275,1.262-2.523,2.564-3.812,3.8a6.213,6.213,0,0,0-1.947,4.2A17.98,17.98,0,0,0,1.405,4.18,46.88,46.88,0,0,0,9.633,17.893,50.814,50.814,0,0,0,26.513,31.1a24.221,24.221,0,0,0,9.352,2.715,6.881,6.881,0,0,0,5.883-2.235c1.1-1.221,2.318-2.331,3.483-3.5a3.637,3.637,0,0,0,.027-5.54C43.2,20.485,41.158,18.455,39.115,16.412Z" transform="translate(1355 183.146)" fill="none" stroke="#fff" stroke-width="2"/>
    <path id="Path_2003" data-name="Path 2003" d="M42.136-11.911A20.78,20.78,0,0,0,11.872,16.544l.206.179A9.883,9.883,0,0,1,7.8,21.563a.807.807,0,0,0,.233,1.522,11.756,11.756,0,0,0,8.831-2.413l.041.041A20.792,20.792,0,0,0,42.136-11.911Z" transform="translate(1372.754 169)" fill="#fff"/>
    <path id="Path_2004" data-name="Path 2004" d="M12.318-6.578H10.277a.947.947,0,0,1-.852-.534.948.948,0,0,1,.111-1l4.929-6.215a.541.541,0,0,1,.424-.2.541.541,0,0,1,.424.2l4.929,6.215a.947.947,0,0,1,.111,1,.947.947,0,0,1-.852.534H17.459V1.136A2.569,2.569,0,0,1,14.89,3.7h0a2.569,2.569,0,0,1-2.569-2.569Zm16.018,2h2.041a.947.947,0,0,1,.852.534.946.946,0,0,1-.111,1L26.189,3.17a.541.541,0,0,1-.848,0L20.412-3.044a.946.946,0,0,1-.111-1,.947.947,0,0,1,.852-.534h2.041v-7.714a2.57,2.57,0,0,1,2.569-2.569h0a2.57,2.57,0,0,1,2.569,2.569Z" transform="translate(1379.869 177.363)" fill="#78c81e" fill-rule="evenodd"/>
  </g>
</svg>
