<svg xmlns="http://www.w3.org/2000/svg" width="63.836" height="52.9" viewBox="0 0 63.836 52.9">
  <g id="Group_2051" data-name="Group 2051" transform="translate(0 52.967)">
    <path id="Path_1928" data-name="Path 1928" stroke="gray" d="M1-32.606a3.394,3.394,0,0,1,.994-2.4A3.394,3.394,0,0,1,4.394-36H45.786a3.394,3.394,0,0,1,2.4.994,3.394,3.394,0,0,1,.994,2.4V-4.44a3.394,3.394,0,0,1-.994,2.4,3.394,3.394,0,0,1-2.4.994H4.394a3.394,3.394,0,0,1-2.4-.994A3.394,3.394,0,0,1,1-4.44Z" fill="none" transform="translate(0 -0.022)" stroke-linecap="round" stroke-linejoin="round" stroke-width="2" fill-rule="evenodd"/>
    <path id="Path_1931" data-name="Path 1931" stroke="gray" d="M1-24.208H11.525a5.7,5.7,0,0,1,5.7,5.7h0a5.7,5.7,0,0,1-5.7,5.7H1Z" fill="none" transform="translate(0 -0.037)" stroke-linecap="round" stroke-linejoin="round" stroke-width="2" fill-rule="evenodd"/>
    <path id="Path_1932" data-name="Path 1932" d="M11.032-20.708A2.206,2.206,0,0,0,8.827-18.5,2.206,2.206,0,0,0,11.032-16.3,2.206,2.206,0,0,0,13.237-18.5,2.206,2.206,0,0,0,11.032-20.708Z" transform="translate(-0.01 -0.042)" fill="gray" fill-rule="evenodd"/>
    <path id="Path_1929" data-name="Path 1929" d="M57.782-46.883a20.754,20.754,0,0,0-29.358,0,20.755,20.755,0,0,0-.877,28.427l.205.178a9.874,9.874,0,0,1-4.274,4.836.806.806,0,0,0,.233,1.521,11.743,11.743,0,0,0,8.823-2.411l.041.041a20.754,20.754,0,0,0,25.194-3.233A20.742,20.742,0,0,0,57.782-46.883Z" transform="translate(-0.028)" fill="#78c71f"/>
    <path id="Path_1930" data-name="Path 1930" d="M41.266-33.576v-4.833H37.238a2.04,2.04,0,0,1-1.4-.416,1.413,1.413,0,0,1-.46-1.1,1.4,1.4,0,0,1,.479-1.119,2.074,2.074,0,0,1,1.386-.41H48.975a2.065,2.065,0,0,1,1.424.423,1.423,1.423,0,0,1,.466,1.107,1.4,1.4,0,0,1-.472,1.1,2.09,2.09,0,0,1-1.417.416H44.947v3.847l1.763-.472a1.822,1.822,0,0,1,2.231,1.288,1.822,1.822,0,0,1-1.288,2.231l-2.707.725v5.622a2.437,2.437,0,0,1-.51,1.7,1.71,1.71,0,0,1-1.318.553,1.735,1.735,0,0,1-1.337-.559,2.421,2.421,0,0,1-.516-1.691V-29.8l-1.739.466A1.822,1.822,0,0,1,37.3-30.626a1.822,1.822,0,0,1,1.288-2.231Z" transform="translate(-0.045 -0.015)" fill="#fff"/>
  </g>
</svg>
