<svg xmlns="http://www.w3.org/2000/svg" width="65.768" height="67.609" viewBox="0 0 65.768 67.609">
  <g id="Group_2052" data-name="Group 2052" transform="translate(1 1)">
    <path id="Path_1920" data-name="Path 1920" d="M5.49-66.853a4.49,4.49,0,0,0-3.175,1.315A4.49,4.49,0,0,0,1-62.363v56.63a4.49,4.49,0,0,0,4.49,4.49H37.918a4.49,4.49,0,0,0,4.49-4.49V-48.6a4.49,4.49,0,0,0-1.315-3.175L27.332-65.538a4.49,4.49,0,0,0-3.175-1.315Z" transform="translate(-1 66.853)" fill="none" stroke="gray" stroke-linecap="round" stroke-linejoin="round" stroke-width="2"/>
    <path id="Path_1921" data-name="Path 1921" d="M9.233-32.4h12.72" transform="translate(-1.03 66.726)" fill="none" stroke="gray" stroke-linecap="round" stroke-linejoin="round" stroke-width="1"/>
    <path id="Path_1922" data-name="Path 1922" d="M9.233-21.752H21.917" transform="translate(-1.03 66.686)" fill="none" stroke="gray" stroke-linecap="round" stroke-linejoin="round" stroke-width="1"/>
    <path id="Path_1923" data-name="Path 1923" d="M59.788-40.333a20.7,20.7,0,0,0-29.288,0,20.705,20.705,0,0,0-.875,28.359l.2.178a9.85,9.85,0,0,1-4.264,4.824A.8.8,0,0,0,25.8-5.455a11.716,11.716,0,0,0,8.8-2.405l.041.041a20.7,20.7,0,0,0,25.133-3.225A20.692,20.692,0,0,0,59.788-40.333Z" transform="translate(-1.087 66.777)" fill="#78c71f"/>
    <path id="Path_1924" data-name="Path 1924" d="M18-42.4v9.963" transform="translate(-1.063 66.762)" fill="none" stroke="gray" stroke-linecap="round" stroke-linejoin="round" stroke-width="1"/>
    <path id="Path_1925" data-name="Path 1925" d="M18-21.52v9.963" transform="translate(-1.063 66.685)" fill="none" stroke="gray" stroke-linecap="round" stroke-linejoin="round" stroke-width="1"/>
    <path id="Path_1926" data-name="Path 1926" d="M27.931-43.05H13.825a4.592,4.592,0,0,0-4.592,4.592v22.647a4.592,4.592,0,0,0,4.592,4.592H24.376" transform="translate(-1.03 66.765)" fill="none" stroke="gray" stroke-linecap="round" stroke-linejoin="round" stroke-width="1"/>
    <path id="Path_1927" data-name="Path 1927" d="M46.624-14.583a11.119,11.119,0,0,1-12.513-9.6,11.166,11.166,0,0,1,9.6-12.544,15.332,15.332,0,0,1,1.694-.094c2.665.063,5.08,1.286,5.017,4.328a4.2,4.2,0,0,1-3.669,4.014,7.926,7.926,0,0,0-1.474.094,4.1,4.1,0,0,0-3.324,3.952A4.1,4.1,0,0,0,45.934-20.2h.094a8.238,8.238,0,0,0,8.4-8.091,8.233,8.233,0,0,0-.313-2.45.44.44,0,0,1,.259-.525.441.441,0,0,1,.552.2,11.4,11.4,0,0,1,1.321,3.97,11.164,11.164,0,0,1-9.628,12.513" transform="translate(-1.122 66.742)" fill="#fff"/>
  </g>
</svg>
