<svg xmlns="http://www.w3.org/2000/svg" width="64.918" height="67.609" viewBox="0 0 64.918 67.609">
  <g id="Group_2053" data-name="Group 2053" transform="translate(1 1)">
    <path id="Path_1933" data-name="Path 1933" stroke="gray" d="M37.863-63.443a3.41,3.41,0,0,0-1-2.411,3.41,3.41,0,0,0-2.411-1H4.41a3.41,3.41,0,0,0-2.411,1,3.41,3.41,0,0,0-1,2.411v58.79A3.409,3.409,0,0,0,2-2.242a3.41,3.41,0,0,0,2.411,1H34.454a3.41,3.41,0,0,0,2.411-1,3.409,3.409,0,0,0,1-2.411Z" fill="none" transform="translate(-1 66.853)" stroke-linecap="round" stroke-linejoin="round" stroke-width="2" fill-rule="evenodd"/>
    <path id="Path_1934" data-name="Path 1934" d="M22-8.5H33.956v-2.989" transform="translate(-1.078 66.648)" fill="none" stroke="gray" stroke-linecap="round" stroke-linejoin="round" stroke-width="1"/>
    <path id="Path_1935" data-name="Path 1935" d="M58.936-48.65a20.7,20.7,0,0,0-29.288,0,20.705,20.705,0,0,0-.875,28.359l.205.178a9.851,9.851,0,0,1-4.264,4.824.8.8,0,0,0,.232,1.517,11.716,11.716,0,0,0,8.8-2.405l.041.041a20.7,20.7,0,0,0,25.133-3.225A20.692,20.692,0,0,0,58.936-48.65Z" transform="translate(-1.083 66.808)" fill="#78c71f"/>
    <path id="Path_1936" data-name="Path 1936" d="M43.043-30.657v2.928a1.063,1.063,0,0,1-.6.957,1.063,1.063,0,0,1-1.123-.124l-8.3-6.582a.608.608,0,0,1-.23-.476.608.608,0,0,1,.23-.476l8.3-6.582a1.063,1.063,0,0,1,1.123-.124,1.063,1.063,0,0,1,.6.957v2.928h9.892a3.3,3.3,0,0,1,3.3,3.3v0a3.3,3.3,0,0,1-3.3,3.3Z" transform="translate(-1.117 66.758)" fill="#fff" fill-rule="evenodd"/>
    <path id="Path_1937" data-name="Path 1937" stroke="gray" d="M19.491-10.853A2.456,2.456,0,0,1,21.946-8.4a2.456,2.456,0,0,1-2.455,2.455A2.456,2.456,0,0,1,17.036-8.4,2.456,2.456,0,0,1,19.491-10.853Z" fill="none" transform="translate(-1.059 66.646)" stroke-linecap="round" stroke-linejoin="round" stroke-width="1" fill-rule="evenodd"/>
    <path id="Path_1938" data-name="Path 1938" d="M33.893-55.513v-6.974H5v53.8H16.941" transform="translate(-1.015 66.837)" fill="none" stroke="gray" stroke-linecap="round" stroke-linejoin="round" stroke-width="1"/>
  </g>
</svg>
