<svg xmlns="http://www.w3.org/2000/svg" width="65.889" height="67.732" viewBox="0 0 65.889 67.732">
  <g id="Group_2054" data-name="Group 2054" transform="translate(0 67.854)">
    <path id="Path_1939" data-name="Path 1939" d="M5.5-66.853a4.5,4.5,0,0,0-3.181,1.317A4.5,4.5,0,0,0,1-62.355V-5.62a4.5,4.5,0,0,0,4.5,4.5H37.987a4.5,4.5,0,0,0,4.5-4.5V-48.568a4.5,4.5,0,0,0-1.317-3.181L27.381-65.535A4.5,4.5,0,0,0,24.2-66.853Z" fill="none" stroke="gray" stroke-linecap="round" stroke-linejoin="round" stroke-width="2"/>
    <path id="Path_1940" data-name="Path 1940" d="M9.233-32.4H21.976" transform="translate(-0.015 -0.064)" fill="none" stroke="gray" stroke-linecap="round" stroke-linejoin="round" stroke-width="1"/>
    <path id="Path_1941" data-name="Path 1941" d="M9.233-21.752H21.94" transform="translate(-0.015 -0.083)" fill="none" stroke="gray" stroke-linecap="round" stroke-linejoin="round" stroke-width="1"/>
    <path id="Path_1942" data-name="Path 1942" d="M59.853-40.322a20.743,20.743,0,0,0-29.342,0,20.743,20.743,0,0,0-.876,28.411l.205.178A9.868,9.868,0,0,1,25.568-6.9a.805.805,0,0,0,.233,1.52,11.738,11.738,0,0,0,8.818-2.41l.041.041a20.743,20.743,0,0,0,25.18-3.231A20.73,20.73,0,0,0,59.853-40.322Z" transform="translate(-0.043 -0.038)" fill="#78c71f"/>
    <path id="Path_1944" data-name="Path 1944" d="M18-42.4v9.982" transform="translate(-0.031 -0.045)" fill="none" stroke="gray" stroke-linecap="round" stroke-linejoin="round" stroke-width="1"/>
    <path id="Path_1945" data-name="Path 1945" d="M18-21.52v9.982" transform="translate(-0.031 -0.084)" fill="none" stroke="gray" stroke-linecap="round" stroke-linejoin="round" stroke-width="1"/>
    <path id="Path_1946" data-name="Path 1946" d="M27.965-43.05H13.833a4.6,4.6,0,0,0-4.6,4.6v22.689a4.6,4.6,0,0,0,4.6,4.6H24.4" transform="translate(-0.015 -0.044)" fill="none" stroke="gray" stroke-linecap="round" stroke-linejoin="round" stroke-width="1"/>
    <path id="Path_1947" data-name="Path 1947" d="M48.549-28.981h4.691a3.35,3.35,0,0,1,3.35,3.35h0a3.35,3.35,0,0,1-3.35,3.35H48.549v4.691a3.35,3.35,0,0,1-3.35,3.35h0a3.35,3.35,0,0,1-3.35-3.35V-22.28H37.157a3.35,3.35,0,0,1-3.35-3.35h0a3.35,3.35,0,0,1,3.35-3.35h4.691v-4.691a3.35,3.35,0,0,1,3.35-3.35h0a3.35,3.35,0,0,1,3.35,3.35Z" transform="translate(-0.061 -0.055)" fill="#fff" fill-rule="evenodd"/>
  </g>
</svg>
