<svg xmlns="http://www.w3.org/2000/svg" width="65.998" height="65.998" viewBox="0 0 65.998 65.998">
  <g id="Group_2055" data-name="Group 2055" transform="translate(-0.002 66.998)">
    <path id="Path_1948" data-name="Path 1948" d="M39.536-18.865a3.546,3.546,0,0,0-5.363,0c-1.256,1.243-2.513,2.486-3.742,3.756a.746.746,0,0,1-1.04.189c-.811-.446-1.675-.8-2.459-1.283a38.754,38.754,0,0,1-9.389-8.552,22.024,22.024,0,0,1-3.364-5.39.759.759,0,0,1,.189-.986c1.256-1.216,2.486-2.459,3.715-3.7a3.571,3.571,0,0,0-.013-5.5c-.973-.986-1.959-1.972-2.945-2.945-1.013-1.013-2.013-2.027-3.04-3.04a3.57,3.57,0,0,0-5.377,0c-1.256,1.243-2.486,2.526-3.756,3.742A6.123,6.123,0,0,0,1.033-38.44a17.714,17.714,0,0,0,1.351,7.525,46.179,46.179,0,0,0,8.106,13.51A50.058,50.058,0,0,0,27.121-4.4a23.86,23.86,0,0,0,9.214,2.675,6.781,6.781,0,0,0,5.8-2.2c1.081-1.2,2.283-2.3,3.431-3.445a3.583,3.583,0,0,0,.027-5.458C43.562-14.852,41.549-16.852,39.536-18.865Z" transform="translate(0 -0.295)" fill="none" stroke="gray" stroke-linejoin="round" stroke-width="2"/>
    <path id="Path_1949" data-name="Path 1949" d="M60.373-61a20.466,20.466,0,0,0-28.951,0,20.467,20.467,0,0,0-.865,28.033l.2.176a9.737,9.737,0,0,1-4.215,4.769.794.794,0,0,0,.23,1.5,11.581,11.581,0,0,0,8.7-2.378l.04.041A20.467,20.467,0,0,0,60.36-32.048,20.454,20.454,0,0,0,60.373-61Z" transform="translate(-0.37)" fill="#78c71f"/>
    <path id="Path_1950" data-name="Path 1950" d="M46.033-58A11.613,11.613,0,0,0,34.42-46.384,11.613,11.613,0,0,0,46.033-34.771,11.613,11.613,0,0,0,57.647-46.384,11.613,11.613,0,0,0,46.033-58Zm-4.495,2.72a10.245,10.245,0,0,0-.6.929,12.467,12.467,0,0,0-.771,1.628q-.72-.2-1.433-.446A10.023,10.023,0,0,1,41.538-55.277Zm-4,3.693q1.022.383,2.06.673a18.232,18.232,0,0,0-.521,3.579H36.113A9.9,9.9,0,0,1,37.535-51.584Zm0,10.4a9.9,9.9,0,0,1-1.422-4.251h2.961a18.24,18.24,0,0,0,.521,3.579Q38.557-41.568,37.535-41.185Zm1.2,1.582q.712-.247,1.433-.446a12.48,12.48,0,0,0,.771,1.628,10.225,10.225,0,0,0,.6.929A10.025,10.025,0,0,1,38.738-39.6Zm6.347,2.692a6.116,6.116,0,0,1-3.04-3.567,21.993,21.993,0,0,1,3.04-.345Zm0-5.814a23.893,23.893,0,0,0-3.64.428,16.388,16.388,0,0,1-.471-3.14h4.111Zm0-4.608H40.974a16.389,16.389,0,0,1,.471-3.14,23.867,23.867,0,0,0,3.64.428Zm0-4.613a22,22,0,0,1-3.04-.345,6.116,6.116,0,0,1,3.04-3.567Zm9.447.362a9.9,9.9,0,0,1,1.422,4.251H52.993a18.23,18.23,0,0,0-.521-3.578Q53.51-51.2,54.532-51.584Zm-1.2-1.582q-.712.247-1.433.446a12.5,12.5,0,0,0-.771-1.628,10.265,10.265,0,0,0-.6-.929A10.026,10.026,0,0,1,53.328-53.166Zm-6.347-2.692a6.115,6.115,0,0,1,3.04,3.567,21.993,21.993,0,0,1-3.04.345Zm0,5.814a23.863,23.863,0,0,0,3.64-.428,16.379,16.379,0,0,1,.471,3.14H46.982Zm0,4.608h4.111a16.378,16.378,0,0,1-.471,3.14,23.875,23.875,0,0,0-3.64-.428Zm0,8.525v-3.912a21.99,21.99,0,0,1,3.04.345A6.116,6.116,0,0,1,46.982-36.911Zm3.547-.581a10.213,10.213,0,0,0,.6-.929,12.491,12.491,0,0,0,.771-1.628q.72.2,1.433.446A10.023,10.023,0,0,1,50.528-37.491Zm4-3.693q-1.022-.384-2.06-.673a18.237,18.237,0,0,0,.521-3.578h2.961A9.9,9.9,0,0,1,54.532-41.185Z" transform="translate(-0.506 -0.136)" fill="#fff"/>
  </g>
</svg>
