<svg xmlns="http://www.w3.org/2000/svg" width="87.041" height="87.041" viewBox="0 0 87.041 87.041">
  <g id="Group_1840" data-name="Group 1840" transform="translate(0 20)">
    <path id="Path_1812" data-name="Path 1812" d="M43.521-20A43.521,43.521,0,1,1,0,23.521,43.541,43.541,0,0,1,43.521-20ZM36.465,30.225,60.7,5.988a5.1,5.1,0,0,1,7.214,0L67.923,6a5.1,5.1,0,0,1,0,7.214L36.473,44.66l-.008-.008-.008.008L19.118,27.321a5.1,5.1,0,0,1,0-7.214l.008-.008a5.1,5.1,0,0,1,7.213,0Z" fill="#78c71d" fill-rule="evenodd"/>
  </g>
</svg>
