<?xml version="1.0" encoding="utf-8"?>
<!-- Generator: Adobe Illustrator 27.4.0, SVG Export Plug-In . SVG Version: 6.00 Build 0)  -->
<svg version="1.1" id="Layer_1" xmlns="http://www.w3.org/2000/svg" xmlns:xlink="http://www.w3.org/1999/xlink" x="0px" y="0px"
	 viewBox="0 0 48 48" style="enable-background:new 0 0 48 48;" xml:space="preserve">
<style type="text/css">
	.st0{opacity:0.4;}
	.st1{fill-rule:evenodd;clip-rule:evenodd;fill:#A0A0A0;}
	.st2{fill:#CCCCCC;}
</style>
<g id="_Rectangle_" class="st0">
	<path d="M47,1v46H1V1H47 M48,0H0v48h48V0z"/>
</g>
<path class="st1" d="M22.6,33.8c-0.6-0.3-1-0.8-1.2-1.3L17.2,24l1.4-10.7c0.1,0.1,0.3,0.3,0.3,0.6l5.6,11.4L22,30.3
	C21.4,31.5,21.6,32.9,22.6,33.8z"/>
<path class="st2" d="M14,35.8c-0.1,0-0.3,0-0.3,0c-1.7-0.2-2.8-1.7-2.6-3.3l0,0l2.2-17.7c0.2-1.7,1.7-2.8,3.3-2.6
	c1.7,0.1,2.8,1.7,2.6,3.3l-2.2,17.7C16.8,34.7,15.5,35.8,14,35.8z"/>
<path class="st1" d="M34.4,35.8c-0.1,0-0.3,0-0.3,0c-1.5,0-2.8-1.1-3-2.6L30,24.5l4.7-9.8c0,0,0,0,0,0.1L37,32.5
	C37.2,34.1,36.1,35.6,34.4,35.8L34.4,35.8z"/>
<path class="st2" d="M24,34.2c-0.5,0-0.9-0.1-1.3-0.3c-1.4-0.7-2.1-2.5-1.4-4l0,0l7.8-16.1c0.7-1.4,2.5-2.1,4-1.4
	c1.5,0.7,2.1,2.5,1.4,4l-7.8,16.1C26.2,33.5,25.2,34.2,24,34.2z"/>
</svg>
