<svg xmlns="http://www.w3.org/2000/svg" width="48" height="48" viewBox="0 0 48 48">
  <g id="Group_10379" data-name="Group 10379" transform="translate(-14746 -1657)">
    <g id="Layer_2" data-name="Layer 2" transform="translate(14746 1657)">
      <g id="Layer_1" data-name="Layer 1">
        <g id="_Rectangle_" data-name="&lt;Rectangle&gt;" opacity="0.8">
          <path id="Path_2686" data-name="Path 2686" d="M47,1V47H1V1H47m1-1H0V48H48Z" fill="#808080"/>
        </g>
      </g>
    </g>
    <g id="Group_268" data-name="Group 268" transform="translate(13205.034 -551.474)">
      <g id="Group_265" data-name="Group 265" transform="translate(1547.136 2226.018)">
        <path id="Path_323" data-name="Path 323" d="M1549.721,2235.013v-8.995h-2.585v9.659a2.407,2.407,0,0,0,2.407,2.407h3.273V2235.5h-2.609A.487.487,0,0,1,1549.721,2235.013Z" transform="translate(-1547.136 -2226.018)" fill="#808080"/>
        <path id="Path_324" data-name="Path 324" d="M1812.748,2228.6h-2.583l-2.584,4.181v-6.765H1805v12.066h2.584v-3.822l2.585,3.822h2.584l-3.062-4.529Z" transform="translate(-1783.193 -2226.018)" fill="#808080"/>
        <path id="Path_325" data-name="Path 325" d="M1618.391,2256.582h-.341a3.706,3.706,0,0,0-3.706,3.706h0v2.067a3.707,3.707,0,0,0,3.706,3.707h.341a3.706,3.706,0,0,0,3.706-3.707h0v-2.066a3.707,3.707,0,0,0-3.706-3.707Zm1.123,5.6a1.294,1.294,0,0,1-1.293,1.294h0a1.294,1.294,0,0,1-1.293-1.294h0v-1.727a1.294,1.294,0,0,1,1.293-1.3h0a1.294,1.294,0,0,1,1.293,1.294Z" transform="translate(-1608.661 -2253.998)" fill="#808080"/>
        <path id="Path_326" data-name="Path 326" d="M1713.406,2256.582h-.341a3.706,3.706,0,0,0-3.706,3.706h0v2.067a3.707,3.707,0,0,0,3.706,3.707h.341a3.706,3.706,0,0,0,3.706-3.707h0v-2.066a3.707,3.707,0,0,0-3.706-3.707Zm1.124,5.6a1.294,1.294,0,0,1-2.588,0v-1.727a1.294,1.294,0,0,1,2.588-.053c0,.018,0,.035,0,.053Z" transform="translate(-1695.642 -2253.998)" fill="#808080"/>
      </g>
      <g id="Group_266" data-name="Group 266" transform="translate(1577.216 2230.133)">
        <path id="Path_327" data-name="Path 327" d="M1907.567,2275.095h0a2.6,2.6,0,0,1,2.6,2.6v.276a2.6,2.6,0,0,1-2.6,2.6h-1.674a2.6,2.6,0,0,1-2.6-2.6v-.276a2.6,2.6,0,0,1,2.6-2.6h1.674m0-.4h-1.674a3,3,0,0,0-3,3v.276a3,3,0,0,0,3,3h1.676a3,3,0,0,0,3-3h0v-.276a3,3,0,0,0-3-3.006h0Z" transform="translate(-1902.889 -2274.688)" fill="#808080"/>
      </g>
      <path id="Path_328" data-name="Path 328" d="M1927.049,2294.852h-.489l-.084.627-.373.1v.4h.355l-.021.95a1.185,1.185,0,0,0,.063.472.453.453,0,0,0,.23.251,1,1,0,0,0,.423.075h.406v-.46l-.285-.025a.263.263,0,0,1-.161-.084.359.359,0,0,1-.059-.234v-.944h.527v-.5h-.532Z" transform="translate(-346.924 -63.014)" fill="#808080"/>
      <path id="Path_329" data-name="Path 329" d="M1946.554,2303.957l-.484-1.673h-.641l.752,2.246h.715l.787-2.246h-.632Z" transform="translate(-364.616 -69.818)" fill="#808080"/>
    </g>
  </g>
</svg>
