<svg xmlns="http://www.w3.org/2000/svg" viewBox="0 0 48 48"><defs><style>.cls-1{fill:#808080;}.cls-2{opacity:0.8;}</style></defs><title>Asset 180</title><g id="Layer_2" data-name="Layer 2"><g id="Layer_1-2" data-name="Layer 1"><g id="Layer_1-2-2" data-name="Layer 1-2"><g id="_Group_" data-name=" Group "><g id="_Group_2" data-name=" Group 2"><path class="cls-1" d="M24.5,20.33V23.5h5a14.75,14.75,0,0,0-.62-3.85A16.67,16.67,0,0,1,24.5,20.33Z"/></g><g id="_Group_3" data-name=" Group 3"><path class="cls-1" d="M23.5,19.33V14.55c-1.65.27-3.12,1.87-4,4.16A15.51,15.51,0,0,0,23.5,19.33Z"/></g><g id="_Group_4" data-name=" Group 4"><path class="cls-1" d="M24.5,14.55v4.78a16,16,0,0,0,4-.63C27.62,16.42,26.15,14.82,24.5,14.55Z"/></g><g id="_Group_5" data-name=" Group 5"><path class="cls-1" d="M24.5,29.52v3.94c1.47-.24,2.79-1.53,3.7-3.41A16,16,0,0,0,24.5,29.52Z"/></g><g id="_Group_6" data-name=" Group 6"><path class="cls-1" d="M23.5,23.5V20.33a16.52,16.52,0,0,1-4.36-.68,14.75,14.75,0,0,0-.62,3.85Z"/></g><g id="_Group_7" data-name=" Group 7"><path class="cls-1" d="M19.8,30c.92,1.88,2.24,3.17,3.7,3.41V29.52A16.46,16.46,0,0,0,19.8,30Z"/></g><g id="_Group_8" data-name=" Group 8"><path class="cls-1" d="M24.5,24.5v4a16.72,16.72,0,0,1,4.1.6,14.3,14.3,0,0,0,.89-4.62Z"/></g><g id="_Group_9" data-name=" Group 9"><path class="cls-1" d="M19.4,29.12a16.72,16.72,0,0,1,4.1-.6v-4h-5A14.46,14.46,0,0,0,19.4,29.12Z"/></g><g id="_Group_10" data-name=" Group 10"><path class="cls-1" d="M29.17,30.35a9.12,9.12,0,0,1-1.65,2.47,9.46,9.46,0,0,0,3-1.91A11.3,11.3,0,0,0,29.17,30.35Z"/></g><g id="_Group_11" data-name=" Group 11"><path class="cls-1" d="M14.53,23.5h3a15.6,15.6,0,0,1,.67-4.18,11.44,11.44,0,0,1-1.86-.91A9.35,9.35,0,0,0,14.53,23.5Z"/></g><g id="_Group_12" data-name=" Group 12"><path class="cls-1" d="M29.48,18.38A10.67,10.67,0,0,0,31,17.64a9.61,9.61,0,0,0-3.52-2.45A9.66,9.66,0,0,1,29.48,18.38Z"/></g><g id="_Group_13" data-name=" Group 13"><path class="cls-1" d="M18.52,18.38a9.7,9.7,0,0,1,2-3.2A9.43,9.43,0,0,0,17,17.64,10.67,10.67,0,0,0,18.52,18.38Z"/></g><g id="_Group_14" data-name=" Group 14"><path class="cls-1" d="M31.67,18.41a11.44,11.44,0,0,1-1.86.91,15.6,15.6,0,0,1,.67,4.18h3A9.35,9.35,0,0,0,31.67,18.41Z"/></g><g id="_Group_15" data-name=" Group 15"><path class="cls-1" d="M30.48,24.5a15.38,15.38,0,0,1-.93,4.93,11.2,11.2,0,0,1,1.66.74,9.48,9.48,0,0,0,2.26-5.67Z"/></g><g id="_Group_16" data-name=" Group 16"><path class="cls-1" d="M16.78,30.17a11.2,11.2,0,0,1,1.66-.74,15.38,15.38,0,0,1-.93-4.93h-3A9.49,9.49,0,0,0,16.78,30.17Z"/></g><g id="_Group_17" data-name=" Group 17"><path class="cls-1" d="M18.83,30.35a12.2,12.2,0,0,0-1.34.56,9.46,9.46,0,0,0,3,1.91A9.4,9.4,0,0,1,18.83,30.35Z"/></g></g><g id="_Rectangle_" data-name=" Rectangle " class="cls-2"><path class="cls-1" d="M47,1V47H1V1H47m1-1H0V48H48Z"/></g></g></g></g></svg>