<?xml version="1.0" encoding="utf-8"?>
<!-- Generator: Adobe Illustrator 27.4.0, SVG Export Plug-In . SVG Version: 6.00 Build 0)  -->
<svg version="1.1" id="Layer_1" xmlns="http://www.w3.org/2000/svg" xmlns:xlink="http://www.w3.org/1999/xlink" x="0px" y="0px"
	 viewBox="0 0 48 48" style="enable-background:new 0 0 48 48;" xml:space="preserve">
<style type="text/css">
	.st0{opacity:0.4;}
	.st1{opacity:0.4;fill:#808080;}
	.st2{fill:#808080;}
</style>
<g id="_Rectangle_" class="st0">
	<path d="M47,1v46H1V1H47 M48,0H0v48h48V0z"/>
</g>
<g>
	<path class="st1" d="M21.6,21.4c-0.7,1.4-1.3,2.8-2,4.2c-0.1,0.1-0.1,0.2-0.1,0.3c0,2.3,0,4.7,0,7c0,0.8-0.3,1.4-1,1.8
		c-0.5,0.3-1,0.5-1.4,0.8c-1.4,0.8-3.2,0.1-3.6-1.5c-0.1-0.1-0.1-0.3-0.1-0.5c0-6.4,0-12.7,0-19.1c0-1.1,1-2.1,2.1-2.3
		c0.6-0.1,1.1,0.1,1.6,0.3c0.5,0.3,1,0.5,1.4,0.8c0.6,0.3,1,0.9,1,1.6c0,0.8,0,1.6,0,2.5c0,0.1,0,0.1,0,0.2c0.2-0.2,0.3-0.4,0.5-0.6
		c0.6-0.8,1.4-1.2,2.4-1.2c0.5,0,1,0.1,1.4,0.4c1,0.5,1.9,1.1,2.8,1.6c0.7,0.4,1,1,1,1.7c0,0.8,0,1.6,0,2.5c0,0.1,0,0.1,0,0.2
		c0.3-0.3,0.7-0.8,0.7-0.8c0.9-0.9,2.3-1.2,3.4-0.6c0.7,0.3,1.4,0.7,2,1.2c1.3,1,1.2,3-0.2,3.9c-0.9,0.5-1.9,1.1-2.7,1.6
		c-0.5,0.3-1.1-0.1-1.1-0.7c0-1.1,0-2.2,0-3.3c0-0.1,0-0.3,0-0.4c0,0-1.4,3.2-2,4.3c-0.1,0.1-0.1,0.2-0.1,0.3c0,0.3,0,0.8,0,1.1
		c0,0.3-0.1,0.5-0.4,0.7c-1.5,0.9-3,1.7-4.5,2.6c-0.5,0.3-1.1-0.1-1.1-0.7c0-3.3,0-6.7,0-9.9C21.6,21.6,21.6,21.5,21.6,21.4
		L21.6,21.4z"/>
	<path class="st2" d="M19.6,25.9l2.1-4.4L21.6,19c0,0,0-2.4-1.6-1.9l-0.5,0.6L19.6,25.9z"/>
	<path class="st2" d="M27.5,22.5l0,5.3l2.2-4.6c0,0-0.1-1.8-1.5-1.5L27.5,22.5z"/>
</g>
</svg>
