<svg xmlns="http://www.w3.org/2000/svg" viewBox="0 0 48 48"><defs><style>.cls-1{fill:#808080;}.cls-2{opacity:1; }</style></defs><title>Asset 140</title><g id="Layer_2" data-name="Layer 2"><g id="Layer_1-2" data-name="Layer 1"><g id="Layer_1-2-2" data-name="Layer 1-2"><g id="_Group_" data-name=" Group "><path class="cls-1" d="M32.87,27.89a12.63,12.63,0,0,1-4-.63,1.1,1.1,0,0,0-1.13.28L26.32,29a1,1,0,0,1-1.16.15,16.82,16.82,0,0,1-6.32-6.32A1,1,0,0,1,19,21.68l1.47-1.47a1.1,1.1,0,0,0,.28-1.13,12.63,12.63,0,0,1-.63-4A1.12,1.12,0,0,0,19,14H15.11A1.11,1.11,0,0,0,14,15.11,18.89,18.89,0,0,0,32.89,34h0A1.11,1.11,0,0,0,34,32.89h0V29a1.12,1.12,0,0,0-1.13-1.11Z"/></g><g id="_Group_2" data-name=" Group 2"><path class="cls-1" d="M18.12,29.88A20.94,20.94,0,0,1,14,24a9.07,9.07,0,0,0,.07,1.28A10,10,0,0,0,24,34,20.94,20.94,0,0,1,18.12,29.88Z"/></g><g id="_Group_3" data-name=" Group 3"><path class="cls-1" d="M22.11,15.12a10.58,10.58,0,0,0,.54,3.35,3.11,3.11,0,0,1-.77,3.15l-.89.89c.18.28.39.54.58.81a3.69,3.69,0,0,1,2.52-1.79c.51-.09.82,0,1.3-.09a3.72,3.72,0,0,0,3.31-3.59c.05-2.72-2.11-3.79-4.49-3.85a10.92,10.92,0,0,0-1.51.08,3.83,3.83,0,0,0-.74.13A2.8,2.8,0,0,1,22.11,15.12Z"/></g><g id="_Group_4" data-name=" Group 4"><path class="cls-1" d="M32.31,21.64A7.32,7.32,0,0,1,31,25.71a10.11,10.11,0,0,0,1.9.18,3.39,3.39,0,0,1,.9.15,10,10,0,0,0-4.4-10.42A7.41,7.41,0,0,1,32.31,21.64Z"/></g><g id="_Group_5" data-name=" Group 5"><path class="cls-1" d="M32.42,29.42A10.81,10.81,0,0,0,33.19,28a1.55,1.55,0,0,0-.31-.06h-.94l-.59-.07h-.29l-.77-.14h-.07c-.27-.06-.55-.13-.82-.21h0a7.48,7.48,0,0,1-2.76,1.31l-.3.3a1,1,0,0,1-.67.28,1,1,0,0,1-.48-.13l-.4-.24H24.7a3.72,3.72,0,0,1-3.55-3h0a17,17,0,0,1-1.21-1.46l-.07-.09a16,16,0,0,1-1-1.57,1,1,0,0,1,.13-1.2l1.47-1.47a1.1,1.1,0,0,0,.28-1.13,12.63,12.63,0,0,1-.63-4,1.59,1.59,0,0,0-.06-.3,10,10,0,0,0-5.32,5.44h0c.1.36.22.71.34,1.06l.1.28a18.53,18.53,0,0,0,.86,2v.07c.17.33.35.65.53,1l.14.23a19.75,19.75,0,0,0,1.16,1.71l.11.14q.33.43.69.84l.17.18a16.31,16.31,0,0,0,1.44,1.44l.16.15c.27.24.55.47.84.7l.14.11a17,17,0,0,0,1.73,1.18l.19.11c.32.19.65.37,1,.54h.06a18.6,18.6,0,0,0,2,.87l.22.08c.36.13.72.24,1.09.35h0A10,10,0,0,0,32.42,29.42Z"/></g><g id="_Rectangle_" data-name=" Rectangle " class="cls-2"><path class="cls-1" d="M47,1V47H1V1H47m1-1H0V48H48Z"/></g></g></g></g></svg>