<svg xmlns="http://www.w3.org/2000/svg" width="30" height="30" viewBox="0 0 30 30">
  <g id="Group_1846" data-name="Group 1846" transform="translate(0 30)">
    <path id="Path_1817" data-name="Path 1817" d="M15-30A15.007,15.007,0,0,1,30-15,15.007,15.007,0,0,1,15,0,15.007,15.007,0,0,1,0-15,15.007,15.007,0,0,1,15-30Zm-1.892,7.471A2.239,2.239,0,0,1,15-23.57a2.239,2.239,0,0,1,1.892,1.041l6.9,10.886a2.239,2.239,0,0,1,.07,2.278A2.239,2.239,0,0,1,21.9-8.205H8.1a2.239,2.239,0,0,1-1.962-1.16,2.239,2.239,0,0,1,.07-2.278Zm1.9,12.069a.974.974,0,0,1-.721-.272.974.974,0,0,1-.272-.721.957.957,0,0,1,.272-.707.974.974,0,0,1,.721-.272.957.957,0,0,1,.707.272.957.957,0,0,1,.272.707.974.974,0,0,1-.272.721A.957.957,0,0,1,15.007-10.46Zm-.789-8.868a.789.789,0,0,1,.231-.558.789.789,0,0,1,.558-.231h0a.789.789,0,0,1,.558.231.789.789,0,0,1,.231.558v5.182a.789.789,0,0,1-.231.558.789.789,0,0,1-.558.231h0a.789.789,0,0,1-.558-.231.789.789,0,0,1-.231-.558Z" fill="#a3a3a3" fill-rule="evenodd"/>
  </g>
</svg>
