<svg xmlns="http://www.w3.org/2000/svg" width="30" height="30" viewBox="0 0 30 30">
  <g id="Group_1845" data-name="Group 1845" transform="translate(0 30)">
    <path id="Path_1816" data-name="Path 1816" d="M15-30A15.007,15.007,0,0,1,30-15,15.007,15.007,0,0,1,15,0,15.007,15.007,0,0,1,0-15,15.007,15.007,0,0,1,15-30Zm7.5,6.618a1.3,1.3,0,0,0-.381-.921,1.3,1.3,0,0,0-.921-.381H8.8a1.3,1.3,0,0,0-.921.381,1.3,1.3,0,0,0-.381.921V-6.618a1.3,1.3,0,0,0,.381.921,1.3,1.3,0,0,0,.921.381H21.2a1.3,1.3,0,0,0,.921-.381,1.3,1.3,0,0,0,.381-.921ZM20.17-8.455l.038,0a.383.383,0,0,1-.038.759H9.836c-.743-.038-.389-.741,0-.761Zm0-2.771.038,0c.742.114.308.741-.038.759H9.836c-.4-.021-.542-.733,0-.761Zm0-2.771.038,0c.239.037.262.127.3.211a.4.4,0,0,1-.342.548H9.836c-.721-.037-.377-.742,0-.761Zm0-2.771.038,0c.323.049.315.174.338.321a.4.4,0,0,1-.376.438H9.836c-.721-.037-.377-.742,0-.761Zm0-2.771.038,0c.387.059.5.732-.038.759H9.836c-.4-.021-.542-.733,0-.761Zm-4.2-2c.53-.021.429-.712.03-.76-2.051-.081-4.106,0-6.159,0a.392.392,0,0,0-.269.649c.056.056.071.1.269.111Z" fill="#a3a3a3" fill-rule="evenodd"/>
  </g>
</svg>
