<svg xmlns="http://www.w3.org/2000/svg" width="30" height="30" viewBox="0 0 30 30">
  <g id="Group_2069" data-name="Group 2069" transform="translate(0 24.689)">
    <path id="Path_1814" data-name="Path 1814" d="M15-24.689a15.017,15.017,0,0,0-15,15,15.017,15.017,0,0,0,15,15,15.018,15.018,0,0,0,15-15A15.017,15.017,0,0,0,15-24.689ZM23.649-1.422v-.592c0-2.046-2.364-2.792-3.629-3.333-.458-.2-1.321-.611-2.207-1.044a1.21,1.21,0,0,1-.6-.869l-.1-.969a4.165,4.165,0,0,0,1.392-2.49h.153a.515.515,0,0,0,.5-.4L19.4-12.6a.492.492,0,0,0-.509-.509c.007-.031.012-.063.015-.09.031-.178.05-.35.062-.518.015-.135.027-.274.034-.419a3.347,3.347,0,0,0-.289-1.654,3.923,3.923,0,0,0-.922-1.343c-1.172-1.109-2.53-1.541-3.689-.649a2.681,2.681,0,0,0-2.4,1.017A3.155,3.155,0,0,0,11-15.35a4.489,4.489,0,0,0-.161,1.07,4.332,4.332,0,0,0,.109,1.176.5.5,0,0,0-.462.5l.239,1.482a.515.515,0,0,0,.5.4h.137a4.974,4.974,0,0,0,1.4,2.536l-.094.937a1.213,1.213,0,0,1-.6.869c-.857.418-1.7.82-2.206,1.029-1.19.491-3.629,1.287-3.629,3.333v.463A11.921,11.921,0,0,1,3.023-9.687,11.992,11.992,0,0,1,15-21.666,11.992,11.992,0,0,1,26.981-9.687,11.941,11.941,0,0,1,23.649-1.422Z" transform="translate(0)" fill="#78c81e"/>
  </g>
</svg>
