<svg xmlns="http://www.w3.org/2000/svg" width="40.122" height="41.17" viewBox="0 0 40.122 41.17">
  <g id="Group_2100" data-name="Group 2100" transform="translate(-95.75 -307.622)">
    <path id="Path_19" data-name="Path 19" stroke="#363636" d="M23.1-885.917a2.115,2.115,0,0,0-.619-1.495,2.115,2.115,0,0,0-1.494-.619H2.364a2.115,2.115,0,0,0-1.494.619,2.115,2.115,0,0,0-.619,1.495v36.443a2.112,2.112,0,0,0,.619,1.494,2.113,2.113,0,0,0,1.494.619H20.987a2.113,2.113,0,0,0,1.494-.619,2.112,2.112,0,0,0,.619-1.494Z" fill="#fff" transform="translate(95.75 1195.902)" stroke-linecap="round" stroke-linejoin="round" stroke-width="0.5" fill-rule="evenodd"/>
    <path id="Path_20" data-name="Path 20" d="M21.25-830.811h7.411v-1.853" transform="translate(87.719 1174.729)" fill="none" stroke="#363636" stroke-linecap="round" stroke-linejoin="round" stroke-width="0.5"/>
    <path id="Path_21" data-name="Path 21" d="M44.746-872.134a12.834,12.834,0,0,0-18.155,0,12.835,12.835,0,0,0-.542,17.579l.127.11a6.109,6.109,0,0,1-2.643,2.991.5.5,0,0,0,.144.94,7.261,7.261,0,0,0,5.456-1.491l.025.025a12.834,12.834,0,0,0,15.58-2A12.827,12.827,0,0,0,44.746-872.134Z" transform="translate(87.115 1191.262)" fill="#a3a3a3" stroke="#363636" stroke-linejoin="round" stroke-width="0.5"/>
    <path id="Path_22" data-name="Path 22" stroke="#363636" d="M17.808-832.03a1.522,1.522,0,0,1,1.522,1.522,1.522,1.522,0,0,1-1.522,1.522,1.522,1.522,0,0,1-1.522-1.522A1.522,1.522,0,0,1,17.808-832.03Z" fill="#fff" transform="translate(89.618 1174.487)" stroke-linecap="round" stroke-linejoin="round" stroke-width="0.5" fill-rule="evenodd"/>
    <path id="Path_23" data-name="Path 23" d="M22.16-879.341v-4.323H4.25v33.35h6.793" transform="translate(94.22 1194.232)" fill="none" stroke="#363636" stroke-linecap="round" stroke-linejoin="round" stroke-width="0.5"/>
    <path id="Path_24" data-name="Path 24" d="M44.649-857.468a5.658,5.658,0,0,0,.758-2.489,3.477,3.477,0,0,0-.367-1.727,4.881,4.881,0,0,0-1.884-1.856,5.314,5.314,0,0,1-1.393-1.177L41.7-864.8a2.317,2.317,0,0,1-.486-.872.53.53,0,0,0-.555-.451.523.523,0,0,0-.487.522v9.332A3.034,3.034,0,0,0,38.6-856.7a2.4,2.4,0,0,0-2.618,2.095,2.4,2.4,0,0,0,2.618,2.095,2.4,2.4,0,0,0,2.618-2.095v-6.1a3.771,3.771,0,0,1,2.428,2.854,3.04,3.04,0,0,1-.2.286.521.521,0,0,0,.047.738.522.522,0,0,0,.738-.047,3.917,3.917,0,0,0,.384-.54A.339.339,0,0,0,44.649-857.468Z" transform="translate(82.085 1187.526)" fill="#fff"/>
  </g>
</svg>
