<svg xmlns="http://www.w3.org/2000/svg" width="40.469" height="40.99" viewBox="0 0 40.469 40.99">
  <g id="Group_2067" data-name="Group 2067" transform="translate(-0.75 67.104)">
    <path id="Path_1818" data-name="Path 1818" d="M23.749-64.749a2.1,2.1,0,0,0-.616-1.488,2.1,2.1,0,0,0-1.488-.616H3.1a2.1,2.1,0,0,0-1.488.616A2.1,2.1,0,0,0,1-64.749v36.281a2.1,2.1,0,0,0,.616,1.488,2.1,2.1,0,0,0,1.488.616H21.645a2.1,2.1,0,0,0,1.488-.616,2.1,2.1,0,0,0,.616-1.488Z" fill="#fff" stroke="#000" stroke-linecap="round" stroke-linejoin="round" stroke-width="0.5" fill-rule="evenodd"/>
    <path id="Path_1819" data-name="Path 1819" d="M22-9.643h7.378v-1.845" transform="translate(-8.088 -21.324)" fill="none" stroke="#000" stroke-linecap="round" stroke-linejoin="round" stroke-width="0.5"/>
    <path id="Path_1820" data-name="Path 1820" stroke="#000" d="M18.551-10.853a1.516,1.516,0,0,1,1.515,1.515,1.516,1.516,0,0,1-1.515,1.515,1.516,1.516,0,0,1-1.515-1.515A1.516,1.516,0,0,1,18.551-10.853Z" fill="#fff" transform="translate(-6.176 -21.568)" stroke-linecap="round" stroke-linejoin="round" stroke-width="0.5" fill-rule="evenodd"/>
    <path id="Path_1821" data-name="Path 1821" d="M22.831-58.183v-4.3H5v33.2h6.763" transform="translate(-1.541 -1.681)" fill="none" stroke="#000" stroke-linecap="round" stroke-linejoin="round" stroke-width="0.5"/>
    <path id="Path_1822" data-name="Path 1822" d="M46.251-50.974a12.777,12.777,0,0,0-18.075,0,12.778,12.778,0,0,0-.54,17.5l.126.11a6.079,6.079,0,0,1-2.631,2.977.5.5,0,0,0,.143.936,7.23,7.23,0,0,0,5.432-1.484l.025.025A12.778,12.778,0,0,0,46.243-32.9,12.77,12.77,0,0,0,46.251-50.974Z" transform="translate(-9.025 -4.674)" fill="#78c71d" stroke="#000" stroke-linejoin="round" stroke-width="0.5"/>
    <path id="Path_1823" data-name="Path 1823" d="M47.841-39.975a.914.914,0,0,0-.914-.914H34.721a.914.914,0,0,0-.914.914v6.734a.914.914,0,0,0,.914.914H46.928a.914.914,0,0,0,.914-.914Zm-4.056,3.35a.221.221,0,0,0-.135.359l2.984,3.127c.161.157.49-.089.308-.294L43.958-36.56C43.915-36.6,43.914-36.632,43.785-36.625Zm-5.923,0a.221.221,0,0,1,.135.359l-2.984,3.127c-.161.157-.49-.089-.308-.294L37.69-36.56C37.734-36.6,37.734-36.632,37.863-36.625Zm2.961.863,5.867-3.813a.183.183,0,0,1,.149-.032.22.22,0,0,1,.083.389l-5.906,3.838a.268.268,0,0,1-.082.053c-.18.1-.281.042-.314-.059l-5.9-3.832a.219.219,0,0,1,.127-.391.182.182,0,0,1,.1.034Z" transform="translate(-12.636 -10)" fill="#fff" fill-rule="evenodd"/>
  </g>
</svg>
