<svg xmlns="http://www.w3.org/2000/svg" width="39.604" height="40.639" viewBox="0 0 39.604 40.639">
  <g id="Group_2068" data-name="Group 2068" transform="translate(-0.75 67.104)">
    <path id="Path_1830" data-name="Path 1830" d="M23.552-64.767a2.086,2.086,0,0,0-.611-1.475,2.086,2.086,0,0,0-1.475-.611H3.086a2.086,2.086,0,0,0-1.475.611A2.086,2.086,0,0,0,1-64.767V-28.8a2.086,2.086,0,0,0,.611,1.475,2.086,2.086,0,0,0,1.475.611h18.38a2.086,2.086,0,0,0,1.475-.611,2.086,2.086,0,0,0,.611-1.475Z" fill="#fff" stroke="#000" stroke-linecap="round" stroke-linejoin="round" stroke-width="0.5" fill-rule="evenodd"/>
    <path id="Path_1831" data-name="Path 1831" d="M22-9.659h7.314v-1.829" transform="translate(-8.2 -21.62)" fill="none" stroke="#000" stroke-linecap="round" stroke-linejoin="round" stroke-width="0.5"/>
    <path id="Path_1832" data-name="Path 1832" d="M45.209-51.006a12.666,12.666,0,0,0-17.918,0,12.667,12.667,0,0,0-.535,17.349l.125.109A6.026,6.026,0,0,1,24.273-30.6a.492.492,0,0,0,.142.928A7.168,7.168,0,0,0,29.8-31.14l.025.025A12.667,12.667,0,0,0,45.2-33.088,12.659,12.659,0,0,0,45.209-51.006Z" transform="translate(-8.817 -4.738)" fill="#78c81e" stroke="#000" stroke-linejoin="round" stroke-width="0.5"/>
    <path id="Path_1833" data-name="Path 1833" stroke="#000" d="M18.538-10.853a1.5,1.5,0,0,1,1.5,1.5,1.5,1.5,0,0,1-1.5,1.5,1.5,1.5,0,0,1-1.5-1.5A1.5,1.5,0,0,1,18.538-10.853Z" fill="#fff" transform="translate(-6.262 -21.867)" stroke-linecap="round" stroke-linejoin="round" stroke-width="0.5" fill-rule="evenodd"/>
    <path id="Path_1834" data-name="Path 1834" d="M22.676-58.221v-4.267H5v32.914h6.7" transform="translate(-1.562 -1.705)" fill="none" stroke="#000" stroke-linecap="round" stroke-linejoin="round" stroke-width="0.5"/>
    <path id="Path_1835" data-name="Path 1835" d="M45.286-36.4a5.582,5.582,0,0,0,.748-2.457,3.431,3.431,0,0,0-.362-1.7,4.818,4.818,0,0,0-1.86-1.832,5.257,5.257,0,0,1-1.375-1.161l-.063-.085a2.288,2.288,0,0,1-.48-.861.523.523,0,0,0-.548-.444.515.515,0,0,0-.481.515v9.21a2.99,2.99,0,0,0-1.551-.424,2.372,2.372,0,0,0-2.584,2.067,2.372,2.372,0,0,0,2.584,2.067A2.372,2.372,0,0,0,41.9-33.58V-39.6a3.72,3.72,0,0,1,2.4,2.817,2.928,2.928,0,0,1-.2.282.515.515,0,0,0,.047.729.515.515,0,0,0,.729-.047,3.846,3.846,0,0,0,.379-.533A.335.335,0,0,0,45.286-36.4Z" transform="translate(-13.953 -8.553)" fill="#fff"/>
  </g>
</svg>
