<svg xmlns="http://www.w3.org/2000/svg" width="39.104" height="40.638" viewBox="0 0 39.104 40.638">
  <g id="Group_2116" data-name="Group 2116" transform="translate(-425.25 -228.602)">
    <path id="Path_1" data-name="Path 1" stroke="#000" d="M23.552-64.767a2.086,2.086,0,0,0-.611-1.475,2.086,2.086,0,0,0-1.475-.611H3.086a2.086,2.086,0,0,0-1.475.611A2.086,2.086,0,0,0,1-64.767V-28.8a2.086,2.086,0,0,0,.611,1.475,2.086,2.086,0,0,0,1.475.611h18.38a2.086,2.086,0,0,0,1.475-.611,2.086,2.086,0,0,0,.611-1.475Z" fill="#fff" transform="translate(424.5 295.705)" stroke-linecap="round" stroke-linejoin="round" stroke-width="0.5" fill-rule="evenodd"/>
    <path id="Path_2" data-name="Path 2" d="M22-9.659h7.314v-1.829" transform="translate(415.799 274.085)" fill="none" stroke="#000" stroke-linecap="round" stroke-linejoin="round" stroke-width="0.5"/>
    <path id="Path_3" data-name="Path 3" d="M45.209-51.006a12.666,12.666,0,0,0-17.918,0,12.667,12.667,0,0,0-.535,17.349l.125.109A6.026,6.026,0,0,1,24.273-30.6a.492.492,0,0,0,.142.928A7.168,7.168,0,0,0,29.8-31.14l.025.025A12.667,12.667,0,0,0,45.2-33.088,12.659,12.659,0,0,0,45.209-51.006Z" transform="translate(415.184 290.966)" fill="#a3a3a3" stroke="#000" stroke-linejoin="round" stroke-width="0.5"/>
    <path id="Path_4" data-name="Path 4" d="M40.486-38.8v-1.791a.65.65,0,0,1,.367-.586.65.65,0,0,1,.687.076l5.077,4.026a.372.372,0,0,1,.141.291.372.372,0,0,1-.141.291L41.54-32.465a.651.651,0,0,1-.687.076.65.65,0,0,1-.367-.586v-1.791H34.434a2.016,2.016,0,0,1-2.016-2.016h0A2.016,2.016,0,0,1,34.434-38.8Z" transform="translate(411.732 285.704)" fill="#fff" fill-rule="evenodd"/>
    <path id="Path_5" data-name="Path 5" stroke="#000" d="M18.538-10.853a1.5,1.5,0,0,1,1.5,1.5,1.5,1.5,0,0,1-1.5,1.5,1.5,1.5,0,0,1-1.5-1.5A1.5,1.5,0,0,1,18.538-10.853Z" fill="#fff" transform="translate(417.738 273.837)" stroke-linecap="round" stroke-linejoin="round" stroke-width="0.5" fill-rule="evenodd"/>
    <path id="Path_6" data-name="Path 6" d="M22.676-58.221v-4.267H5v32.914h6.7" transform="translate(422.438 294)" fill="none" stroke="#000" stroke-linecap="round" stroke-linejoin="round" stroke-width="0.5"/>
  </g>
</svg>
