<svg xmlns="http://www.w3.org/2000/svg" width="39.604" height="40.639" viewBox="0 0 39.604 40.639">
  <g id="Group_2066" data-name="Group 2066" transform="translate(-0.75 67.104)">
    <path id="Path_1824" data-name="Path 1824" d="M23.552-64.767a2.086,2.086,0,0,0-.611-1.475,2.086,2.086,0,0,0-1.475-.611H3.086a2.086,2.086,0,0,0-1.475.611A2.086,2.086,0,0,0,1-64.767V-28.8a2.086,2.086,0,0,0,.611,1.475,2.086,2.086,0,0,0,1.475.611h18.38a2.086,2.086,0,0,0,1.475-.611,2.086,2.086,0,0,0,.611-1.475Z" fill="#fff" stroke="#000" stroke-linecap="round" stroke-linejoin="round" stroke-width="0.5" fill-rule="evenodd"/>
    <path id="Path_1825" data-name="Path 1825" d="M22-9.659h7.314v-1.829" transform="translate(-8.2 -21.62)" fill="none" stroke="#000" stroke-linecap="round" stroke-linejoin="round" stroke-width="0.5"/>
    <path id="Path_1826" data-name="Path 1826" d="M45.209-51.006a12.666,12.666,0,0,0-17.918,0,12.667,12.667,0,0,0-.535,17.349l.125.109A6.026,6.026,0,0,1,24.273-30.6a.492.492,0,0,0,.142.928A7.168,7.168,0,0,0,29.8-31.14l.025.025A12.667,12.667,0,0,0,45.2-33.088,12.659,12.659,0,0,0,45.209-51.006Z" transform="translate(-8.817 -4.738)" fill="#78c81e" stroke="#000" stroke-linejoin="round" stroke-width="0.5"/>
    <path id="Path_1827" data-name="Path 1827" d="M40.486-38.8v-1.791a.65.65,0,0,1,.367-.586.65.65,0,0,1,.687.076l5.077,4.026a.372.372,0,0,1,.141.291.372.372,0,0,1-.141.291L41.54-32.465a.651.651,0,0,1-.687.076.65.65,0,0,1-.367-.586v-1.791H34.434a2.016,2.016,0,0,1-2.016-2.016h0A2.016,2.016,0,0,1,34.434-38.8Z" transform="translate(-12.268 -10.001)" fill="#fff" fill-rule="evenodd"/>
    <path id="Path_1828" data-name="Path 1828" stroke="#000" d="M18.538-10.853a1.5,1.5,0,0,1,1.5,1.5,1.5,1.5,0,0,1-1.5,1.5,1.5,1.5,0,0,1-1.5-1.5A1.5,1.5,0,0,1,18.538-10.853Z" fill="#fff" transform="translate(-6.262 -21.867)" stroke-linecap="round" stroke-linejoin="round" stroke-width="0.5" fill-rule="evenodd"/>
    <path id="Path_1829" data-name="Path 1829" d="M22.676-58.221v-4.267H5v32.914h6.7" transform="translate(-1.562 -1.705)" fill="none" stroke="#000" stroke-linecap="round" stroke-linejoin="round" stroke-width="0.5"/>
  </g>
</svg>
