<svg xmlns="http://www.w3.org/2000/svg" width="40.122" height="41.17" viewBox="0 0 40.122 41.17">
  <g id="Group_2104" data-name="Group 2104" transform="translate(-95.75 -623.75)">
    <path id="Path_50" data-name="Path 50" stroke="#363636" d="M23.1-337.965a2.114,2.114,0,0,0-.619-1.495,2.113,2.113,0,0,0-1.494-.619H2.364a2.113,2.113,0,0,0-1.494.619,2.114,2.114,0,0,0-.619,1.495v36.443a2.113,2.113,0,0,0,.619,1.495,2.113,2.113,0,0,0,1.494.619H20.987a2.113,2.113,0,0,0,1.494-.619,2.113,2.113,0,0,0,.619-1.495Z" fill="#fff" transform="translate(95.75 964.079)" stroke-linecap="round" stroke-linejoin="round" stroke-width="0.5" fill-rule="evenodd"/>
    <path id="Path_51" data-name="Path 51" d="M21.25-282.86h7.411v-1.853" transform="translate(87.719 942.906)" fill="none" stroke="#363636" stroke-linecap="round" stroke-linejoin="round" stroke-width="0.5"/>
    <path id="Path_52" data-name="Path 52" d="M44.746-324.182a12.834,12.834,0,0,0-18.155,0,12.834,12.834,0,0,0-.542,17.578l.127.111a6.105,6.105,0,0,1-2.643,2.99.5.5,0,0,0,.144.941,7.261,7.261,0,0,0,5.456-1.491l.025.026a12.835,12.835,0,0,0,15.58-2A12.826,12.826,0,0,0,44.746-324.182Z" transform="translate(87.115 959.438)" fill="#a3a3a3" stroke="#363636" stroke-linejoin="round" stroke-width="0.5"/>
    <path id="Path_53" data-name="Path 53" stroke="#363636" d="M17.808-284.079a1.523,1.523,0,0,1,1.522,1.522,1.522,1.522,0,0,1-1.522,1.522,1.522,1.522,0,0,1-1.522-1.522A1.523,1.523,0,0,1,17.808-284.079Z" fill="#fff" transform="translate(89.618 942.664)" stroke-linecap="round" stroke-linejoin="round" stroke-width="0.5" fill-rule="evenodd"/>
    <path id="Path_54" data-name="Path 54" d="M22.16-331.39v-4.323H4.25v33.35h6.793" transform="translate(94.22 962.41)" fill="none" stroke="#363636" stroke-linecap="round" stroke-linejoin="round" stroke-width="0.5"/>
    <path id="Path_55" data-name="Path 55" d="M46.3-313.2a.918.918,0,0,0-.918-.918H33.123a.918.918,0,0,0-.918.918v6.764a.918.918,0,0,0,.918.918H45.384a.918.918,0,0,0,.918-.918Zm-4.074,3.365a.222.222,0,0,0-.136.361l3,3.141c.162.158.492-.09.31-.3l-3-3.141C42.357-309.809,42.356-309.838,42.228-309.832Zm-5.949,0a.222.222,0,0,1,.136.361l-3,3.141c-.162.158-.492-.09-.31-.3l3-3.141C36.149-309.809,36.15-309.838,36.279-309.832Zm2.974.866,5.893-3.83a.181.181,0,0,1,.15-.032.221.221,0,0,1,.083.391l-5.932,3.856a.261.261,0,0,1-.083.053c-.18.1-.282.042-.315-.059l-5.922-3.849a.22.22,0,0,1,.128-.393.181.181,0,0,1,.105.035Z" transform="translate(83.53 954.15)" fill="#fff" fill-rule="evenodd"/>
  </g>
</svg>
